<svg width="494" height="110" viewBox="0 0 494 110">
  <g id="Logo_Vert" data-name="Logo Vert" transform="translate(-191.068 -202.207)">
    <g id="Grupo_1" data-name="Grupo 1" transform="translate(200.803 202.207)">
      <path id="Caminho_1" data-name="Caminho 1" d="M212.11,208.767h-9.954a.1.1,0,0,0-.107.107v6.681a.1.1,0,0,0,.107.107h6.979a.24.24,0,0,1,.271.271v1.136a.239.239,0,0,1-.271.271h-6.979a.1.1,0,0,0-.107.109v6.789a.1.1,0,0,0,.107.109h9.954a.239.239,0,0,1,.271.27v1.137a.239.239,0,0,1-.271.27H200.4a.238.238,0,0,1-.27-.27V207.361a.239.239,0,0,1,.27-.271H212.11a.24.24,0,0,1,.271.271V208.5A.24.24,0,0,1,212.11,208.767Z" transform="translate(-200.128 -201.843)" fill="#1d1d1b"/>
      <path id="Caminho_2" data-name="Caminho 2" d="M239.23,224.875a4.425,4.425,0,0,1-1.772-3.678v-.839a.239.239,0,0,1,.271-.27h1.325a.239.239,0,0,1,.271.27v.731a3,3,0,0,0,1.3,2.529,5.945,5.945,0,0,0,3.6.96,4.925,4.925,0,0,0,3.164-.879,2.862,2.862,0,0,0,1.082-2.339,2.657,2.657,0,0,0-.5-1.624,4.933,4.933,0,0,0-1.542-1.271,27.124,27.124,0,0,0-2.934-1.38,31.564,31.564,0,0,1-3.151-1.419,5.3,5.3,0,0,1-1.812-1.569,4.046,4.046,0,0,1-.69-2.421,4.252,4.252,0,0,1,1.583-3.53,6.8,6.8,0,0,1,4.341-1.258,7.3,7.3,0,0,1,4.733,1.407,4.57,4.57,0,0,1,1.731,3.733v.6a.239.239,0,0,1-.271.271H248.6a.239.239,0,0,1-.271-.271v-.487a3.166,3.166,0,0,0-1.231-2.57,5.282,5.282,0,0,0-3.421-1,4.785,4.785,0,0,0-2.947.784,2.685,2.685,0,0,0-1.028,2.273,2.516,2.516,0,0,0,.5,1.609,4.2,4.2,0,0,0,1.433,1.11q.933.472,2.881,1.23a26.292,26.292,0,0,1,3.177,1.514,6.343,6.343,0,0,1,1.948,1.718,4.072,4.072,0,0,1,.744,2.475,4.414,4.414,0,0,1-1.677,3.624,7.219,7.219,0,0,1-4.651,1.353A7.659,7.659,0,0,1,239.23,224.875Z" transform="translate(-197.347 -201.858)" fill="#1d1d1b"/>
      <path id="Caminho_3" data-name="Caminho 3" d="M287.625,207.361v1.163a.239.239,0,0,1-.27.271h-5.3a.1.1,0,0,0-.108.107v16.851a.238.238,0,0,1-.27.27H280.3a.239.239,0,0,1-.271-.27V208.9a.1.1,0,0,0-.108-.107h-5.085a.239.239,0,0,1-.271-.271v-1.163a.239.239,0,0,1,.271-.271h12.523A.239.239,0,0,1,287.625,207.361Z" transform="translate(-194.584 -201.843)" fill="#1d1d1b"/>
      <path id="Caminho_4" data-name="Caminho 4" d="M316.208,225.846a5.557,5.557,0,0,1-2.271-2.123,6.1,6.1,0,0,1-.811-3.178v-12.82a.239.239,0,0,1,.27-.271h1.38a.239.239,0,0,1,.271.271V220.6a4.154,4.154,0,0,0,1.244,3.125,5.052,5.052,0,0,0,6.546,0,4.157,4.157,0,0,0,1.243-3.125V207.724a.239.239,0,0,1,.271-.271h1.38a.239.239,0,0,1,.27.271v12.82a6.184,6.184,0,0,1-.8,3.178,5.471,5.471,0,0,1-2.259,2.123,7.863,7.863,0,0,1-6.735,0Zm2.246-20.271a.22.22,0,0,1,.027-.231L320.1,202.4a.317.317,0,0,1,.324-.189h1.217c.109,0,.175.031.2.095a.254.254,0,0,1-.041.23l-1.839,2.948a.394.394,0,0,1-.324.189h-.974A.225.225,0,0,1,318.453,205.574Z" transform="translate(-191.711 -202.207)" fill="#1d1d1b"/>
      <path id="Caminho_5" data-name="Caminho 5" d="M352.8,225.753V207.361a.239.239,0,0,1,.27-.271h6.384a6.179,6.179,0,0,1,4.259,1.407,4.843,4.843,0,0,1,1.583,3.813V220.8a4.842,4.842,0,0,1-1.583,3.813,6.174,6.174,0,0,1-4.259,1.407h-6.384A.238.238,0,0,1,352.8,225.753Zm2.028-1.407h4.706a3.813,3.813,0,0,0,2.8-1.028,3.7,3.7,0,0,0,1.041-2.758v-7.979a3.549,3.549,0,0,0-3.841-3.813h-4.706a.1.1,0,0,0-.107.107v15.363A.1.1,0,0,0,354.824,224.346Z" transform="translate(-188.756 -201.843)" fill="#1d1d1b"/>
      <path id="Caminho_6" data-name="Caminho 6" d="M391.51,225.753V207.361a.239.239,0,0,1,.271-.271h1.379a.239.239,0,0,1,.271.271v18.392a.239.239,0,0,1-.271.27h-1.379A.239.239,0,0,1,391.51,225.753Z" transform="translate(-185.872 -201.843)" fill="#1d1d1b"/>
      <path id="Caminho_7" data-name="Caminho 7" d="M423.69,225.47a5.546,5.546,0,0,1-2.259-2.2,6.593,6.593,0,0,1-.8-3.286v-6.815a6.594,6.594,0,0,1,.8-3.287,5.553,5.553,0,0,1,2.259-2.2,7.049,7.049,0,0,1,3.381-.784,7.127,7.127,0,0,1,3.394.784,5.527,5.527,0,0,1,2.271,2.2,6.6,6.6,0,0,1,.8,3.287v6.815a6.594,6.594,0,0,1-.8,3.286,5.52,5.52,0,0,1-2.271,2.2,7.115,7.115,0,0,1-3.394.784A7.036,7.036,0,0,1,423.69,225.47Zm6.681-2.11a4.462,4.462,0,0,0,1.244-3.3v-6.924a4.509,4.509,0,0,0-1.244-3.313,4.921,4.921,0,0,0-6.573,0,4.5,4.5,0,0,0-1.244,3.313v6.924a4.65,4.65,0,0,0,7.817,3.3Z" transform="translate(-183.703 -201.858)" fill="#1d1d1b"/>
    </g>
    <g id="Grupo_4" data-name="Grupo 4" transform="translate(191.068 255.349)">
      <g id="Grupo_2" data-name="Grupo 2" transform="translate(39.345)">
        <path id="Caminho_8" data-name="Caminho 8" d="M227.686,251.665v1.481l17.7,25.34,16.028-25.34v-1.481Z" transform="translate(-227.686 -251.665)" fill="#1d1d1b"/>
      </g>
      <g id="Grupo_3" data-name="Grupo 3">
        <path id="Caminho_9" data-name="Caminho 9" d="M229.423,308.041l12.227-19.332L221,259.15l4.972-6v-1.481h-34.9v1.481Z" transform="translate(-191.068 -251.665)" fill="#1d1d1b"/>
      </g>
    </g>
    <g id="Grupo_7" data-name="Grupo 7" transform="translate(436.889 253.87)">
      <g id="Grupo_5" data-name="Grupo 5" transform="translate(0)">
        <path id="Caminho_10" data-name="Caminho 10" d="M471.379,292.166c-3.449,1.861-6.99,2.75-12.821,2.6-9.492-.243-18.147-8.67-18.147-21.188,0-9.176,2.571-17.411,7.281-21.808v-1.482c-14.325,0-27.844,10.344-27.844,28.8,0,15.623,10.289,29.184,31.437,29.184,10.93,0,19.977-6.731,21.383-15.314Z" transform="translate(-419.848 -250.289)" fill="#1d1d1b"/>
      </g>
      <g id="Grupo_6" data-name="Grupo 6" transform="translate(30.985)">
        <path id="Caminho_11" data-name="Caminho 11" d="M467.736,283.96l-19.051-6.16V276.32a15.882,15.882,0,0,0,6.609-12.763,17.6,17.6,0,0,0-5.306-11.786v-1.482c12.757,0,23.548,9.2,23.548,20.051C473.537,275.436,470.945,281.194,467.736,283.96Z" transform="translate(-448.685 -250.289)" fill="#1d1d1b"/>
      </g>
    </g>
    <g id="Grupo_8" data-name="Grupo 8" transform="translate(391.001 235.026)">
      <path id="Caminho_12" data-name="Caminho 12" d="M418.569,297.322c-1.941,7.138-8.68,12.258-17.441,12.258-10.028,0-16.994-6.635-16.994-15.155V261.488l-6.993-6.933v-1.482l27.038-20.323h1.482a23.61,23.61,0,0,0,11.575,20.323v1.482H405.661s.322,32.188.322,36.844c0,4.2,2.146,6.648,6.327,6.648,2.141,0,3.2-.494,5.191-1.752Z" transform="translate(-377.141 -232.751)" fill="#1d1d1b"/>
    </g>
    <g id="Grupo_10" data-name="Grupo 10" transform="translate(325.587 253.871)">
      <g id="Grupo_9" data-name="Grupo 9">
        <path id="Caminho_13" data-name="Caminho 13" d="M346.075,250.289l-29.813,15.448v1.481l10.2,10.115v29.7h21.093V250.289Z" transform="translate(-316.261 -250.289)" fill="#1d1d1b"/>
      </g>
    </g>
    <g id="Grupo_11" data-name="Grupo 11" transform="translate(361.326 253.871)">
      <path id="Caminho_14" data-name="Caminho 14" d="M372.2,250.289l-22.676,15.448v1.481l21.343,8.194,2.814-25.124Z" transform="translate(-349.523 -250.289)" fill="#1d1d1b"/>
    </g>
    <g id="Grupo_15" data-name="Grupo 15" transform="translate(568.48 253.871)">
      <g id="Grupo_13" data-name="Grupo 13">
        <g id="Grupo_12" data-name="Grupo 12">
          <path id="Caminho_15" data-name="Caminho 15" d="M572.129,250.289l-29.813,15.448v1.481l10.2,10.115v28.65l1.047,1.047h19l1.047-1.047V250.289Z" transform="translate(-542.316 -250.289)" fill="#1d1d1b"/>
        </g>
      </g>
      <g id="Grupo_14" data-name="Grupo 14" transform="translate(35.739)">
        <path id="Caminho_16" data-name="Caminho 16" d="M598.253,250.289l-22.676,15.448v1.481l21.343,8.194,2.814-25.124Z" transform="translate(-575.578 -250.289)" fill="#1d1d1b"/>
      </g>
    </g>
    <g id="Grupo_18" data-name="Grupo 18" transform="translate(493.241 223.251)">
      <g id="Grupo_16" data-name="Grupo 16" transform="translate(0)">
        <path id="Caminho_17" data-name="Caminho 17" d="M503.588,221.792v77.2l-19.612,10.162h-1.481V248.83l-10.2-10.108V237.24l29.813-15.448Z" transform="translate(-472.293 -221.792)" fill="#1d1d1b"/>
      </g>
      <g id="Grupo_17" data-name="Grupo 17" transform="translate(32.739 30.62)">
        <path id="Caminho_18" data-name="Caminho 18" d="M503.586,300.451l-.824,1.231c2.479,4.051,9.127,6.591,14,6.591,12.9,0,23.25-9.064,23.25-30.94,0-15.49-11.9-27.045-25.863-27.045a21.682,21.682,0,0,0-8.383,1.478v1.482c6.566,2.869,10.723,12.846,10.723,23.7C516.485,292.486,511.556,298.477,503.586,300.451Z" transform="translate(-502.762 -250.289)" fill="#1d1d1b"/>
      </g>
    </g>
    <g id="Grupo_19" data-name="Grupo 19" transform="translate(659.808 253.87)">
      <path id="Caminho_19" data-name="Caminho 19" d="M651.091,307.031h1.482V276.3c0-14.746-4.084-26.011-25.26-26.011v1.482c4.1,2.283,4.167,9.351,4.167,26.029v25.215Z" transform="translate(-627.313 -250.289)" fill="#1d1d1b"/>
    </g>
    <g id="Grupo_20" data-name="Grupo 20" transform="translate(636.611 253.871)">
      <path id="Caminho_20" data-name="Caminho 20" d="M624.476,251.77v-1.481l-16.939,2.96-1.812,16.277,1.472.164Z" transform="translate(-605.725 -250.289)" fill="#1d1d1b"/>
    </g>
    <g id="Grupo_21" data-name="Grupo 21" transform="translate(631.929 276.887)">
      <path id="Caminho_21" data-name="Caminho 21" d="M628.572,301.126c-2.976,3.038-7.3,4.649-13.183,4.649-6.835,0-14.022-6.035-14.022-16.408,0-11.727,10.388-19.566,27.6-17.252V273.6c-4.871,1.249-8.873,5.831-8.873,13.041,0,7.885,3.878,11.578,8.349,13.013Z" transform="translate(-601.367 -271.71)" fill="#1d1d1b"/>
    </g>
    <g id="Grupo_26" data-name="Grupo 26" transform="translate(263.815 230.8)">
      <g id="Grupo_24" data-name="Grupo 24" transform="translate(0 23.071)">
        <g id="Grupo_22" data-name="Grupo 22">
          <path id="Caminho_22" data-name="Caminho 22" d="M310.3,292.166c-3.449,1.861-6.99,2.75-12.821,2.6-9.492-.243-18.147-8.67-18.147-21.188,0-9.176,2.571-17.411,7.281-21.808v-1.482c-14.325,0-27.844,10.344-27.844,28.8,0,15.623,10.289,29.184,31.437,29.184,10.93,0,19.977-6.731,21.383-15.314Z" transform="translate(-258.772 -250.289)" fill="#1d1d1b"/>
        </g>
        <g id="Grupo_23" data-name="Grupo 23" transform="translate(30.985)">
          <path id="Caminho_23" data-name="Caminho 23" d="M306.66,283.96l-19.051-6.16V276.32a15.882,15.882,0,0,0,6.609-12.763,17.6,17.6,0,0,0-5.306-11.786v-1.482c12.757,0,23.548,9.2,23.548,20.051C312.461,275.436,309.869,281.194,306.66,283.96Z" transform="translate(-287.609 -250.289)" fill="#1d1d1b"/>
        </g>
      </g>
      <g id="Grupo_25" data-name="Grupo 25" transform="translate(29.731)">
        <path id="Caminho_24" data-name="Caminho 24" d="M291.276,228.818h19.175l-21.32,15.207h-2.689Z" transform="translate(-286.442 -228.818)" fill="#1d1d1b"/>
      </g>
    </g>
  </g>
</svg>
